<svg width="129" height="129" viewBox="0 0 129 129" fill="none" xmlns="http://www.w3.org/2000/svg">
<rect width="129" height="129" fill="#FF8362"/>
<path d="M78.5356 70.0746C78.4826 70.0746 78.4297 70.0705 78.3767 70.0622C77.8099 69.9752 77.4216 69.4459 77.5088 68.8804L79.4533 56.2684C79.96 52.9786 79.0059 49.6433 76.834 47.118C74.661 44.5917 71.5018 43.1436 68.1661 43.1436H59.8346C56.4988 43.1436 53.3396 44.5917 51.1667 47.1191C48.9948 49.6444 48.0396 52.9797 48.5473 56.2694L50.4919 68.8814C50.5791 69.4469 50.1897 69.9762 49.6239 70.0632C49.0581 70.144 48.5265 69.7629 48.4404 69.1973L46.4948 56.5853C45.8947 52.6969 47.0243 48.7546 49.5907 45.7704C52.1571 42.7842 55.8905 41.072 59.8335 41.072H68.165C72.1081 41.072 75.8414 42.7842 78.4079 45.7694C80.9753 48.7546 82.1038 52.6969 81.5038 56.5843L79.5592 69.1963C79.4814 69.708 79.0391 70.0746 78.5356 70.0746Z" fill="white"/>
<path d="M51.5416 90.7909C50.9685 90.7909 50.5034 90.3279 50.5034 89.7551V87.6835C50.5034 87.1107 50.9685 86.6477 51.5416 86.6477C52.1147 86.6477 52.5798 87.1107 52.5798 87.6835V89.7551C52.5798 90.3279 52.1147 90.7909 51.5416 90.7909Z" fill="white"/>
<path d="M76.4581 90.7909C75.8851 90.7909 75.42 90.3279 75.42 89.7551V87.6835C75.42 87.1107 75.8851 86.6477 76.4581 86.6477C77.0312 86.6477 77.4963 87.1107 77.4963 87.6835V89.7551C77.4963 90.3279 77.0312 90.7909 76.4581 90.7909Z" fill="white"/>
<path d="M77.4965 88.7194H50.5035C46.496 88.7194 43.2361 85.4659 43.2361 81.4688V77.3255C43.2361 76.6978 42.8603 76.1354 42.2799 75.893C40.3375 75.0861 39.0833 73.2082 39.0833 71.1107C39.0833 68.255 41.412 65.9316 44.2743 65.9316C48.8538 65.9316 52.5798 69.6492 52.5798 74.2181V75.7314C54.4185 75.0757 57.9753 74.2181 64 74.2181C70.0246 74.2181 73.5815 75.0757 75.4201 75.7314V74.2181C75.4201 69.6492 79.1462 65.9316 83.7257 65.9316C86.588 65.9316 88.9166 68.255 88.9166 71.1107C88.9166 73.2092 87.6625 75.0871 85.72 75.893C85.1397 76.1354 84.7639 76.6978 84.7639 77.3255V81.4688C84.7639 85.4659 81.5039 88.7194 77.4965 88.7194ZM44.2743 68.0033C42.5571 68.0033 41.1597 69.3975 41.1597 71.1107C41.1597 72.3702 41.9124 73.4972 43.0783 73.9809C44.4352 74.5444 45.3125 75.8578 45.3125 77.3255V81.4688C45.3125 84.3245 47.6411 86.6478 50.5035 86.6478H77.4965C80.3588 86.6478 82.6875 84.3245 82.6875 81.4688V77.3255C82.6875 75.8588 83.5648 74.5454 84.9217 73.9809C86.0876 73.4972 86.8403 72.3702 86.8403 71.1107C86.8403 69.3975 85.4428 68.0033 83.7257 68.0033C80.2903 68.0033 77.4965 70.7906 77.4965 74.2181V79.2604L75.8821 78.1873C75.8624 78.1739 72.7862 76.2897 64 76.2897C55.2137 76.2897 52.1376 78.1739 52.1075 78.1935L50.5128 79.2055L50.5035 74.2181C50.5035 70.7906 47.7097 68.0033 44.2743 68.0033Z" fill="white"/>
<path d="M69.1909 62.824C68.9251 62.824 68.6594 62.7225 68.4569 62.5205L66.3805 60.4489C65.9746 60.0439 65.9746 59.3893 66.3805 58.9843L68.4569 56.9126C68.8629 56.5076 69.519 56.5076 69.9249 56.9126C70.3309 57.3176 70.3309 57.9723 69.9249 58.3773L68.5825 59.7166L69.9249 61.0559C70.3309 61.4609 70.3309 62.1155 69.9249 62.5205C69.7225 62.7225 69.4567 62.824 69.1909 62.824Z" fill="white"/>
<path d="M58.809 62.824C58.5432 62.824 58.2775 62.7225 58.075 62.5205C57.6691 62.1155 57.6691 61.4609 58.075 61.0559L59.4174 59.7166L58.075 58.3773C57.6691 57.9723 57.6691 57.3176 58.075 56.9126C58.481 56.5076 59.1371 56.5076 59.543 56.9126L61.6194 58.9843C62.0254 59.3893 62.0254 60.0439 61.6194 60.4489L59.543 62.5205C59.3406 62.7225 59.0748 62.824 58.809 62.824Z" fill="white"/>
<path d="M63.9999 63.8599C61.7097 63.8599 59.8472 62.0017 59.8472 59.7167C59.8472 57.4317 61.7097 55.5735 63.9999 55.5735C66.2902 55.5735 68.1527 57.4317 68.1527 59.7167C68.1527 62.0017 66.2902 63.8599 63.9999 63.8599ZM63.9999 57.6451C62.8548 57.6451 61.9236 58.5742 61.9236 59.7167C61.9236 60.8592 62.8548 61.7883 63.9999 61.7883C65.1451 61.7883 66.0763 60.8592 66.0763 59.7167C66.0763 58.5742 65.1451 57.6451 63.9999 57.6451Z" fill="white"/>
</svg>
