<svg width="129" height="128" viewBox="0 0 129 128" fill="none" xmlns="http://www.w3.org/2000/svg">
<rect width="129" height="128" fill="#FF8362"/>
<path d="M63.9999 74.7038C63.8223 74.7038 63.6448 74.6586 63.4849 74.5682C62.9544 74.2693 50.5033 67.1256 50.5033 58.2314C50.5033 53.1608 54.1796 50.5073 57.8101 50.5073C60.1097 50.5073 62.5921 51.5911 63.9999 53.9467C65.4326 51.547 67.9813 50.4426 70.3422 50.4426C73.897 50.4426 77.4964 52.9112 77.4964 57.6305C77.4964 65.8857 65.1045 74.181 64.5771 74.5302C64.4027 74.6463 64.2013 74.7038 63.9999 74.7038ZM57.8101 52.5629C55.2904 52.5629 52.5797 54.3381 52.5797 58.2325C52.5797 64.9642 61.6027 70.9923 63.9594 72.4521C66.2922 70.794 75.42 63.9082 75.42 57.6305C75.42 54.1038 72.7882 52.4972 70.3422 52.4972C68.2264 52.4972 65.5634 53.7258 65.0256 57.1877C64.9477 57.688 64.5117 58.0589 63.9999 58.0589C63.488 58.0589 63.052 57.689 62.9741 57.1877C62.4436 53.7741 59.8606 52.5629 57.8101 52.5629Z" fill="white"/>
<path d="M41.9123 86.5175C41.6372 86.5175 41.3683 86.4106 41.1679 86.2062C40.8596 85.8918 40.7859 85.4203 40.9831 85.0289L45.9872 75.1455C41.5272 71.3538 39.0833 66.3982 39.0833 61.1108C39.0833 49.9156 50.2615 40.8057 63.9999 40.8057C77.7383 40.8057 88.9166 49.9156 88.9166 61.1108C88.9166 72.3061 77.7383 81.415 63.9999 81.415C61.1553 81.415 58.3708 81.0287 55.7162 80.2675L42.3494 86.4219C42.2103 86.4866 42.0598 86.5175 41.9123 86.5175ZM63.9999 42.8602C51.4056 42.8602 41.1596 51.0476 41.1596 61.1108C41.1596 66.012 43.5651 70.6162 47.9339 74.074C48.3159 74.3771 48.4322 74.9041 48.2142 75.3366L44.1735 83.3154L55.1971 78.2407C55.4296 78.1328 55.6933 78.1154 55.9383 78.1893C58.511 78.9659 61.2227 79.3604 63.9999 79.3604C76.5943 79.3604 86.8402 71.174 86.8402 61.1108C86.8402 51.0476 76.5943 42.8602 63.9999 42.8602Z" fill="white"/>
</svg>
