<svg width="130" height="129" viewBox="0 0 130 129" fill="none" xmlns="http://www.w3.org/2000/svg">
<rect width="130" height="128.633" fill="#FF8362"/>
<path d="M85.5676 84.9514H44.1349C41.8499 84.9514 39.9916 83.1084 39.9916 80.8423V54.133C39.9916 51.8669 41.8499 50.0239 44.1349 50.0239H85.5676C87.8526 50.0239 89.7109 51.8669 89.7109 54.133V80.8423C89.7109 83.1084 87.8526 84.9514 85.5676 84.9514ZM44.1349 52.0785C42.9924 52.0785 42.0632 52.9999 42.0632 54.133V80.8423C42.0632 81.9753 42.9924 82.8968 44.1349 82.8968H85.5676C86.7101 82.8968 87.6393 81.9753 87.6393 80.8423V54.133C87.6393 52.9999 86.7101 52.0785 85.5676 52.0785H44.1349Z" fill="white"/>
<path d="M73.1378 46.9421H71.0662V44.8875C71.0662 44.3204 70.6011 43.8602 70.0303 43.8602H59.6722C59.1014 43.8602 58.6363 44.3204 58.6363 44.8875V46.9421H56.5647V44.8875C56.5647 43.1884 57.9589 41.8057 59.6722 41.8057H70.0303C71.7436 41.8057 73.1378 43.1884 73.1378 44.8875V46.9421Z" fill="white"/>
<path d="M81.4244 60.2963H47.2424C46.6706 60.2963 46.2066 59.8371 46.2066 59.269C46.2066 58.7009 46.6706 58.2417 47.2424 58.2417H81.4244C81.9962 58.2417 82.4602 58.7009 82.4602 59.269C82.4602 59.8371 81.9962 60.2963 81.4244 60.2963Z" fill="white"/>
<path d="M81.4244 68.515H47.2424C46.6706 68.515 46.2066 68.0558 46.2066 67.4877C46.2066 66.9196 46.6706 66.4604 47.2424 66.4604H81.4244C81.9962 66.4604 82.4602 66.9196 82.4602 67.4877C82.4602 68.0558 81.9962 68.515 81.4244 68.515Z" fill="white"/>
<path d="M81.4244 76.7338H47.2424C46.6706 76.7338 46.2066 76.2746 46.2066 75.7065C46.2066 75.1384 46.6706 74.6792 47.2424 74.6792H81.4244C81.9962 74.6792 82.4602 75.1384 82.4602 75.7065C82.4602 76.2746 81.9962 76.7338 81.4244 76.7338Z" fill="white"/>
<path d="M58.6363 46.9424H56.5647V51.0515H58.6363V46.9424Z" fill="white"/>
<path d="M73.1378 46.9424H71.0661V51.0515H73.1378V46.9424Z" fill="white"/>
<path d="M72.102 45.9146H57.6005V47.9691H72.102V45.9146Z" fill="white"/>
</svg>
