<svg width="130" height="130" viewBox="0 0 130 130" fill="none" xmlns="http://www.w3.org/2000/svg">
<rect width="130" height="129.701" fill="#FF8362"/>
<path d="M65.9314 89.71C52.2246 89.71 41.072 78.5574 41.072 64.8506C41.072 51.1438 52.2246 39.9912 65.9314 39.9912C79.6383 39.9912 90.7908 51.1438 90.7908 64.8506C90.7908 78.5574 79.6383 89.71 65.9314 89.71ZM65.9314 42.0628C53.366 42.0628 43.1436 52.2852 43.1436 64.8506C43.1436 77.416 53.366 87.6384 65.9314 87.6384C78.4968 87.6384 88.7192 77.416 88.7192 64.8506C88.7192 52.2852 78.4968 42.0628 65.9314 42.0628Z" fill="white"/>
<path d="M65.9314 83.495C56.7935 83.495 49.3585 76.0599 49.3585 66.922C49.3585 66.3492 49.8226 65.8862 50.3943 65.8862C50.9661 65.8862 51.4301 66.3492 51.4301 66.922C51.4301 74.9185 57.935 81.4233 65.9314 81.4233C73.9279 81.4233 80.4328 74.9185 80.4328 66.922C80.4328 66.3492 80.8968 65.8862 81.4686 65.8862C82.0403 65.8862 82.5044 66.3492 82.5044 66.922C82.5044 76.0599 75.0693 83.495 65.9314 83.495Z" fill="white"/>
<path d="M60.7524 61.7432C60.1806 61.7432 59.7166 61.2802 59.7166 60.7074C59.7166 58.9941 58.3224 57.5999 56.6092 57.5999C54.8959 57.5999 53.5017 58.9941 53.5017 60.7074C53.5017 61.2802 53.0377 61.7432 52.4659 61.7432C51.8942 61.7432 51.4301 61.2802 51.4301 60.7074C51.4301 57.8516 53.7534 55.5283 56.6092 55.5283C59.4649 55.5283 61.7882 57.8516 61.7882 60.7074C61.7882 61.2802 61.3242 61.7432 60.7524 61.7432Z" fill="white"/>
<path d="M79.3969 61.7432C78.8251 61.7432 78.3611 61.2802 78.3611 60.7074C78.3611 58.9941 76.9669 57.5999 75.2537 57.5999C73.5404 57.5999 72.1462 58.9941 72.1462 60.7074C72.1462 61.2802 71.6822 61.7432 71.1104 61.7432C70.5387 61.7432 70.0746 61.2802 70.0746 60.7074C70.0746 57.8516 72.3979 55.5283 75.2537 55.5283C78.1094 55.5283 80.4327 57.8516 80.4327 60.7074C80.4327 61.2802 79.9687 61.7432 79.3969 61.7432Z" fill="white"/>
</svg>
