<svg width="1440" height="660" viewBox="0 0 1440 660" fill="none" xmlns="http://www.w3.org/2000/svg">
<path d="M0 665V192.506H6.97247V171.547H49.6737V153.724H76.0783V173.899H90.8484V153.724H106.361V109.455H113.334V99.3473H130.414V109.455H137.386V148.278H143.616V181.284H157.603V121.874H166.885V76.0783H173.115V46.5794H177.777V24.0529H182.439V0H189.412V23.2691H194.858V41.9173H199.52V77.646H205.708V124.225H212.681V190.98H224.357V175.426H249.193V183.223H258.518V128.846H265.49V109.455H287.233V128.104L292.06 132.931V164.575H300.435V154.467H322.136V165.359H335.339V175.426H349.325V161.481H359.433V131.569H416.079V161.481H426.187V131.569H474.293V143.616H487.495V187.844H506.143V149.805H569.019V170.021H578.343V195.6H584.532V211.154H611.721V164.575H638.084V180.088H647.408V164.575H678.475V192.506H684.663V211.154H699.433V179.304H732.81V171.547H739.783V162.265H746.797V170.021H754.553V160.697H772.417V169.237H780.174V194.074H794.902V159.913H824.401V170.021H836.82V127.32L846.144 110.239V91.591H850.022V111.023L860.914 126.536V194.074H874.075V65.9703H913.682V184.75H921.438V164.575H938.519V176.993H974.247V192.506H1002.18V168.453H1016.95V182.439H1027.8V173.899H1043.31V163.791H1061.96V190.196H1075.95V138.954L1085.23 126.536L1098.43 139.738V163.007H1113.94V183.966H1133.38V160.697H1146.58V150.589H1164.44V157.602H1176.86V146.711H1222.66V183.223H1226.54V175.426H1244.4V219.695H1257.56V204.924H1263.01V158.345H1280.87V224.357H1290.2V237.559H1308.8V226.667H1347.63V152.94H1377.91V228.235H1440V665H0Z" fill="#BB7365"/>
</svg>
