<svg width="129" height="128" viewBox="0 0 129 128" fill="none" xmlns="http://www.w3.org/2000/svg">
<rect width="129" height="127.644" fill="#FF8362"/>
<path d="M82.6874 43.5062C84.9777 43.5062 86.8402 45.3492 86.8402 47.6153V84.5973C86.8402 86.8635 84.9777 88.7064 82.6874 88.7064H45.3124C43.0222 88.7064 41.1596 86.8635 41.1596 84.5973V47.6153C41.1596 45.3492 43.0222 43.5062 45.3124 43.5062H82.6874ZM82.6874 41.4517H45.3124C41.8864 41.4517 39.0833 44.2253 39.0833 47.6153V84.5973C39.0833 87.9873 41.8864 90.761 45.3124 90.761H82.6874C86.1135 90.761 88.9166 87.9873 88.9166 84.5973V47.6153C88.9166 44.2253 86.1135 41.4517 82.6874 41.4517Z" fill="white"/>
<path d="M63.9999 49.6698C73.1589 49.6698 80.611 57.0436 80.611 66.1062C80.611 75.1689 73.1589 82.5427 63.9999 82.5427C54.841 82.5427 47.3888 75.1689 47.3888 66.1062C47.3888 57.0436 54.841 49.6698 63.9999 49.6698ZM63.9999 47.6152C53.6792 47.6152 45.3124 55.8941 45.3124 66.1062C45.3124 76.3184 53.6792 84.5972 63.9999 84.5972C74.3196 84.5972 82.6874 76.3184 82.6874 66.1062C82.6874 55.8941 74.3196 47.6152 63.9999 47.6152Z" fill="white"/>
<path d="M70.229 67.1335H62.9617V55.8334C62.9617 55.2653 63.4268 54.8062 63.9998 54.8062C64.5729 54.8062 65.038 55.2653 65.038 55.8334V65.0789H70.229C70.8021 65.0789 71.2672 65.5381 71.2672 66.1062C71.2672 66.6743 70.8021 67.1335 70.229 67.1335Z" fill="white"/>
</svg>
