<svg width="129" height="128" viewBox="0 0 129 128" fill="none" xmlns="http://www.w3.org/2000/svg">
<rect width="129" height="128" fill="#FF8362"/>
<path d="M64.2475 61.8591C56.7631 61.8591 50.674 54.8266 50.674 46.1826C50.674 37.5386 56.7621 30.5061 64.2475 30.5061C71.732 30.5061 77.8211 37.5386 77.8211 46.1826C77.8211 54.8266 71.732 61.8591 64.2475 61.8591ZM64.2475 32.5963C57.9185 32.5963 52.769 38.6913 52.769 46.1826C52.769 53.6738 57.9185 59.7689 64.2475 59.7689C70.5766 59.7689 75.7261 53.6738 75.7261 46.1826C75.7261 38.6913 70.5766 32.5963 64.2475 32.5963Z" fill="white"/>
<path d="M89.3248 80.6709H39.0833V73.5945C39.0833 70.5104 41.0389 67.7409 43.9489 66.7052L56.871 63.1529V58.8105H58.966V64.7457L44.5785 68.6961C42.5746 69.4141 41.1772 71.3914 41.1772 73.5945V78.5807H87.2298V73.5945C87.2298 71.3925 85.8335 69.4141 83.7531 68.6731L69.441 64.7457V58.8544H71.536V63.1529L84.3837 66.6812C87.3691 67.742 89.3248 70.5094 89.3248 73.5935V80.6709Z" fill="white"/>
<path d="M73.4205 44.3202C73.3493 44.3202 73.2781 44.3192 73.2058 44.3161C70.8478 44.2304 68.0992 42.7421 66.353 40.7303C65.1316 42.2833 63.3875 43.2824 61.2286 43.6482C57.4523 44.2951 53.1335 42.8487 51.8199 41.5768L53.2791 40.0761C53.9118 40.6896 57.5058 42.16 60.8777 41.5873C62.9706 41.233 64.479 40.1597 65.361 38.3987L66.2367 36.6523L67.2078 38.3475C68.3673 40.3729 71.1495 42.1485 73.2833 42.2269C74.2323 42.252 74.9069 41.9688 75.3375 41.3312L77.0753 42.4986C76.2792 43.6785 74.9876 44.3202 73.4205 44.3202Z" fill="white"/>
</svg>
