<?xml version="1.0" standalone="no"?>
<!DOCTYPE svg PUBLIC "-//W3C//DTD SVG 20010904//EN"
 "http://www.w3.org/TR/2001/REC-SVG-20010904/DTD/svg10.dtd">
<svg version="1.0" xmlns="http://www.w3.org/2000/svg"
 width="536.000000pt" height="536.000000pt" viewBox="0 0 536.000000 536.000000"
 preserveAspectRatio="xMidYMid meet">
<metadata>
Created by potrace 1.11, written by Peter Selinger 2001-2013
</metadata>
<g transform="translate(0.000000,536.000000) scale(0.100000,-0.100000)"
fill="#000000" stroke="none">
<path d="M1180 3831 c-134 -43 -229 -171 -225 -301 5 -144 116 -274 254 -296
55 -9 151 4 145 19 -12 28 -66 59 -109 63 -114 9 -205 107 -205 219 0 91 75
191 159 212 82 21 173 -4 223 -60 30 -35 58 -102 60 -145 1 -32 8 -45 35 -67
19 -15 36 -25 39 -23 10 11 12 99 3 147 -19 93 -80 170 -169 214 -48 23 -163
33 -210 18z"/>
<path d="M1195 3670 c-53 -27 -77 -63 -83 -121 -9 -91 55 -161 149 -163 27 -1
49 -3 49 -6 0 -10 143 -125 225 -182 100 -69 288 -178 510 -293 94 -48 204
-106 245 -127 117 -61 318 -183 395 -240 87 -64 230 -207 275 -272 18 -27 26
-45 19 -40 -8 5 -55 37 -106 70 -150 101 -352 197 -553 264 -120 39 -328 91
-430 106 -19 3 -60 9 -90 14 -30 5 -82 11 -115 15 -33 3 -85 8 -115 11 -71 6
-420 6 -485 0 -27 -3 -75 -8 -105 -11 -64 -7 -193 -26 -275 -40 -60 -11 -221
-47 -253 -57 -26 -8 -37 -7 -50 5 -32 27 -82 38 -126 26 -77 -20 -121 -82
-114 -159 9 -89 78 -147 166 -137 53 6 90 31 117 80 19 35 23 37 130 62 60 14
121 28 135 30 64 12 139 25 180 30 25 3 56 8 70 10 141 25 587 25 740 1 14 -3
72 -12 130 -21 457 -72 910 -270 1152 -504 l80 -78 -20 -40 c-15 -29 -19 -52
-16 -83 7 -56 16 -73 60 -106 28 -21 47 -28 89 -28 58 -1 91 16 129 67 30 40
28 122 -3 165 l-24 34 32 95 c122 372 397 661 703 742 81 21 231 26 313 10 94
-19 200 -59 295 -112 119 -65 268 -176 274 -202 3 -11 8 -37 11 -58 3 -21 19
-53 36 -72 90 -102 259 -38 261 98 2 90 -60 152 -152 152 -31 0 -61 6 -69 13
-32 31 -172 133 -231 169 -102 62 -235 121 -315 139 -212 49 -365 43 -546 -21
-286 -100 -562 -389 -691 -725 -8 -23 -11 -19 -46 50 -50 99 -91 158 -171 243
-155 164 -355 299 -736 497 -307 159 -375 196 -495 268 -121 73 -242 159 -307
220 -26 25 -31 37 -31 76 0 61 -33 113 -86 137 -53 24 -82 24 -131 -1z"/>
<path d="M212 2776 c-76 -25 -138 -80 -180 -161 -35 -67 -37 -186 -6 -256 83
-182 298 -241 465 -128 47 33 102 109 114 160 l6 26 -50 -11 c-28 -5 -51 -15
-51 -21 0 -22 -61 -84 -103 -104 -143 -69 -320 40 -319 197 0 169 187 283 327
201 27 -16 36 -17 79 -6 l50 13 -30 27 c-72 67 -204 95 -302 63z"/>
<path d="M5035 2763 c-16 -2 -47 -8 -68 -14 l-39 -10 40 -31 c31 -24 51 -31
94 -33 62 -3 102 -21 148 -67 43 -42 60 -85 60 -148 0 -86 -35 -147 -113 -197
-69 -44 -182 -31 -252 28 -33 28 -75 113 -75 151 0 17 -11 35 -31 52 -50 42
-52 39 -50 -59 1 -66 49 -163 103 -210 61 -52 134 -76 216 -71 169 9 286 136
286 306 0 57 -6 86 -23 122 -28 58 -84 119 -131 143 -43 23 -125 41 -165 38z"/>
<path d="M3361 2016 c-10 -39 -9 -49 9 -79 44 -75 27 -189 -38 -254 -162 -162
-441 7 -365 221 12 35 11 41 -4 60 -42 49 -47 48 -73 -21 -55 -146 14 -314
158 -385 66 -32 187 -32 254 1 59 29 120 87 150 143 34 66 35 186 3 257 -23
50 -62 100 -76 101 -4 0 -12 -20 -18 -44z"/>
</g>
</svg>
