<svg xmlns="http://www.w3.org/2000/svg" width="129" height="129" fill="none">
    <path fill="#FF8362" d="M0 0h129v129H0z"/>
    <path fill="#fff" d="M78.536 70.075a1.036 1.036 0 0 1-1.027-1.194l1.944-12.613a11.363 11.363 0 0 0-2.619-9.15 11.42 11.42 0 0 0-8.668-3.974h-8.331a11.417 11.417 0 0 0-8.668 3.975 11.36 11.36 0 0 0-2.62 9.15l1.945 12.612a1.037 1.037 0 0 1-2.052.316l-1.945-12.612c-.6-3.888.53-7.83 3.096-10.815a13.49 13.49 0 0 1 10.242-4.698h8.332c3.943 0 7.676 1.712 10.243 4.697a13.426 13.426 0 0 1 3.096 10.815l-1.945 12.612c-.078.512-.52.879-1.023.879zM51.542 90.79a1.037 1.037 0 0 1-1.039-1.035v-2.072c0-.572.465-1.035 1.039-1.035.573 0 1.038.463 1.038 1.035v2.072c0 .573-.465 1.036-1.038 1.036zM76.458 90.79a1.037 1.037 0 0 1-1.038-1.035v-2.072c0-.572.465-1.035 1.038-1.035s1.038.463 1.038 1.035v2.072c0 .573-.465 1.036-1.038 1.036z"/>
    <path fill="#fff" d="M77.496 88.72H50.504c-4.008 0-7.268-3.254-7.268-7.251v-4.143a1.55 1.55 0 0 0-.956-1.433 5.167 5.167 0 0 1-3.197-4.782c0-2.856 2.329-5.18 5.191-5.18 4.58 0 8.306 3.718 8.306 8.287v1.513c1.839-.655 5.395-1.513 11.42-1.513s9.582.858 11.42 1.513v-1.513c0-4.569 3.726-8.286 8.306-8.286 2.862 0 5.19 2.323 5.19 5.179a5.165 5.165 0 0 1-3.196 4.782 1.55 1.55 0 0 0-.956 1.433v4.143c0 3.997-3.26 7.25-7.267 7.25zM44.274 68.002a3.115 3.115 0 0 0-3.114 3.108 3.1 3.1 0 0 0 1.918 2.87 3.613 3.613 0 0 1 2.234 3.345v4.143c0 2.856 2.33 5.179 5.192 5.179h26.992c2.863 0 5.192-2.323 5.192-5.18v-4.142c0-1.467.877-2.78 2.234-3.345a3.1 3.1 0 0 0 1.918-2.87 3.115 3.115 0 0 0-3.114-3.108c-3.436 0-6.23 2.788-6.23 6.215v5.042l-1.614-1.073c-.02-.013-3.096-1.897-11.882-1.897s-11.862 1.884-11.892 1.903l-1.595 1.013-.01-4.988c0-3.427-2.793-6.215-6.229-6.215zM69.19 62.824c-.265 0-.53-.102-.733-.303l-2.076-2.072a1.033 1.033 0 0 1 0-1.465l2.076-2.071a1.039 1.039 0 0 1 1.468 0c.406.405.406 1.06 0 1.464l-1.343 1.34 1.343 1.339a1.036 1.036 0 1 1-.734 1.768zM58.809 62.824a1.037 1.037 0 0 1-.734-1.768l1.342-1.34-1.342-1.339a1.033 1.033 0 0 1 0-1.464 1.039 1.039 0 0 1 1.468 0l2.076 2.071c.406.405.406 1.06 0 1.465l-2.076 2.072a1.036 1.036 0 0 1-.734.303z"/>
    <path fill="#fff" d="M64 63.86a4.152 4.152 0 0 1-4.153-4.143A4.152 4.152 0 0 1 64 55.574a4.152 4.152 0 0 1 4.153 4.143A4.152 4.152 0 0 1 64 63.86zm0-6.215c-1.145 0-2.076.93-2.076 2.072a2.076 2.076 0 0 0 4.152 0A2.076 2.076 0 0 0 64 57.645z"/>
</svg>
