<svg width="129" height="128" fill="none" xmlns="http://www.w3.org/2000/svg"><path fill="#FF8362" d="M0 0h129v128H0z"/><path d="M64 74.704c-.178 0-.355-.045-.515-.136-.53-.299-12.982-7.442-12.982-16.337 0-5.07 3.677-7.724 7.307-7.724 2.3 0 4.782 1.084 6.19 3.44 1.433-2.4 3.981-3.504 6.342-3.504 3.555 0 7.154 2.468 7.154 7.188 0 8.255-12.391 16.55-12.919 16.9a1.04 1.04 0 0 1-.577.173zm-6.19-22.141c-2.52 0-5.23 1.775-5.23 5.67 0 6.731 9.023 12.76 11.38 14.22 2.332-1.659 11.46-8.545 11.46-14.823 0-3.526-2.632-5.133-5.078-5.133-2.116 0-4.779 1.229-5.316 4.69-.078.501-.514.872-1.026.872s-.948-.37-1.026-.871c-.53-3.414-3.113-4.625-5.164-4.625z" fill="#fff"/><path d="M41.912 86.517c-.275 0-.544-.106-.744-.31a1.022 1.022 0 0 1-.185-1.178l5.004-9.883c-4.46-3.792-6.904-8.748-6.904-14.035 0-11.195 11.178-20.305 24.917-20.305 13.738 0 24.917 9.11 24.917 20.305S77.738 81.415 64 81.415a30.03 30.03 0 0 1-8.284-1.148L42.35 86.422c-.139.065-.29.096-.437.096zM64 42.86c-12.594 0-22.84 8.188-22.84 18.25 0 4.902 2.405 9.506 6.774 12.964.382.303.498.83.28 1.263l-4.04 7.978 11.023-5.074c.233-.108.496-.126.741-.052A27.87 27.87 0 0 0 64 79.36c12.594 0 22.84-8.186 22.84-18.25 0-10.062-10.246-18.25-22.84-18.25z" fill="#fff"/></svg>
