<svg width="130" height="129" fill="none" xmlns="http://www.w3.org/2000/svg"><path fill="#FF8362" d="M0 0h130v128.633H0z"/><path d="M85.568 84.951H44.135c-2.285 0-4.143-1.843-4.143-4.109V54.133c0-2.266 1.858-4.11 4.143-4.11h41.433c2.285 0 4.143 1.844 4.143 4.11v26.71c0 2.265-1.858 4.108-4.143 4.108zM44.135 52.08a2.065 2.065 0 0 0-2.072 2.054v26.71c0 1.132.93 2.054 2.072 2.054h41.433a2.065 2.065 0 0 0 2.071-2.055V54.133c0-1.133-.929-2.055-2.071-2.055H44.135zM73.138 46.942h-2.072v-2.054c0-.568-.465-1.028-1.036-1.028H59.672c-.57 0-1.036.46-1.036 1.028v2.054h-2.071v-2.054c0-1.7 1.394-3.082 3.107-3.082H70.03c1.714 0 3.108 1.382 3.108 3.082v2.054z" fill="#fff"/><path d="M81.424 60.296H47.242c-.571 0-1.035-.459-1.035-1.027 0-.568.464-1.027 1.035-1.027h34.182c.572 0 1.036.459 1.036 1.027 0 .568-.464 1.027-1.036 1.027zM81.424 68.515H47.242c-.571 0-1.035-.46-1.035-1.027 0-.568.464-1.028 1.035-1.028h34.182c.572 0 1.036.46 1.036 1.028 0 .568-.464 1.027-1.036 1.027zM81.424 76.734H47.242c-.571 0-1.035-.46-1.035-1.027 0-.569.464-1.028 1.035-1.028h34.182c.572 0 1.036.46 1.036 1.028 0 .568-.464 1.027-1.036 1.027zM58.636 46.942h-2.071v4.11h2.071v-4.11zM73.138 46.942h-2.072v4.11h2.072v-4.11z" fill="#fff"/><path d="M72.102 45.915H57.6v2.054h14.502v-2.054z" fill="#fff"/></svg>
