<svg width="130" height="130" fill="none" xmlns="http://www.w3.org/2000/svg"><path fill="#FF8362" d="M0 0h130v129.701H0z"/><path d="M65.931 89.71c-13.706 0-24.859-11.153-24.859-24.86 0-13.706 11.153-24.859 24.86-24.859 13.706 0 24.859 11.153 24.859 24.86 0 13.706-11.153 24.859-24.86 24.859zm0-47.647c-12.565 0-22.787 10.222-22.787 22.788 0 12.565 10.222 22.787 22.787 22.787 12.566 0 22.788-10.222 22.788-22.787 0-12.566-10.222-22.788-22.788-22.788z" fill="#fff"/><path d="M65.931 83.495c-9.137 0-16.572-7.435-16.572-16.573a1.036 1.036 0 1 1 2.071 0c0 7.996 6.505 14.501 14.501 14.501 7.997 0 14.502-6.505 14.502-14.501a1.035 1.035 0 1 1 2.071 0c0 9.138-7.435 16.573-16.573 16.573zM60.752 61.743a1.035 1.035 0 0 1-1.035-1.036 3.111 3.111 0 0 0-3.108-3.107 3.111 3.111 0 0 0-3.107 3.107 1.035 1.035 0 1 1-2.072 0 5.185 5.185 0 0 1 5.18-5.179 5.185 5.185 0 0 1 5.178 5.18c0 .572-.464 1.035-1.036 1.035zM79.397 61.743a1.035 1.035 0 0 1-1.036-1.036 3.111 3.111 0 0 0-3.107-3.107 3.111 3.111 0 0 0-3.108 3.107 1.035 1.035 0 1 1-2.071 0 5.185 5.185 0 0 1 5.179-5.179 5.185 5.185 0 0 1 5.179 5.18c0 .572-.464 1.035-1.036 1.035z" fill="#fff"/></svg>
