<svg width="1440" height="660" fill="none" xmlns="http://www.w3.org/2000/svg"><path d="M0 665V192.506h6.972v-20.959h42.702v-17.823h26.404v20.175h14.77v-20.175h15.513v-44.269h6.973V99.347h17.08v10.108h6.972v38.823h6.23v33.006h13.987v-59.41h9.282V76.078h6.23V46.58h4.662V24.053h4.662V0h6.973v23.27h5.446v18.647h4.662v35.729h6.188v46.579h6.973v66.755h11.676v-15.554h24.836v7.797h9.325v-54.377h6.972v-19.391h21.743v18.649l4.827 4.827v31.644h8.375v-10.108h21.701v10.892h13.203v10.067h13.986v-13.945h10.108v-29.912h56.646v29.912h10.108v-29.912h48.106v12.047h13.202v44.228h18.648v-38.039h62.876v20.216h9.324V195.6h6.189v15.554h27.189v-46.579h26.363v15.513h9.324v-15.513h31.067v27.931h6.188v18.648h14.77v-31.85h33.377v-7.757h6.973v-9.282h7.014v7.756h7.756v-9.324h17.864v8.54h7.757v24.837h14.728v-34.161h29.499v10.108h12.419V127.32l9.324-17.081V91.591h3.878v19.432l10.892 15.513v67.538h13.161V65.97h39.607v118.78h7.756v-20.175h17.081v12.418h35.728v15.513h27.933v-24.053h14.77v13.986h10.85v-8.54h15.51v-10.108h18.65v26.405h13.99v-51.242l9.28-12.418 13.2 13.202v23.269h15.51v20.959h19.44v-23.269h13.2v-10.108h17.86v7.013h12.42v-10.891h45.8v36.512h3.88v-7.797h17.86v44.269h13.16v-14.771h5.45v-46.579h17.86v66.012h9.33v13.202h18.6v-10.892h38.83V152.94h30.28v75.295H1440V665H0z" fill="#BB7365"/></svg>
