<svg width="129" height="128" fill="none" xmlns="http://www.w3.org/2000/svg"><path fill="#FF8362" d="M0 0h129v127.644H0z"/><path d="M82.687 43.506c2.29 0 4.153 1.843 4.153 4.11v36.981c0 2.267-1.862 4.11-4.153 4.11H45.312c-2.29 0-4.152-1.843-4.152-4.11V47.615c0-2.266 1.862-4.109 4.152-4.109h37.375zm0-2.054H45.312c-3.426 0-6.229 2.773-6.229 6.163v36.982c0 3.39 2.803 6.164 6.23 6.164h37.374c3.427 0 6.23-2.774 6.23-6.164V47.615c0-3.39-2.803-6.163-6.23-6.163z" fill="#fff"/><path d="M64 49.67c9.159 0 16.611 7.374 16.611 16.436 0 9.063-7.452 16.437-16.611 16.437s-16.611-7.374-16.611-16.437c0-9.062 7.452-16.436 16.61-16.436zm0-2.055c-10.32 0-18.688 8.28-18.688 18.491 0 10.212 8.367 18.491 18.688 18.491 10.32 0 18.687-8.279 18.687-18.49 0-10.213-8.367-18.492-18.687-18.492z" fill="#fff"/><path d="M70.229 67.133h-7.267v-11.3c0-.568.465-1.027 1.038-1.027s1.038.46 1.038 1.027v9.246h5.191c.573 0 1.038.46 1.038 1.027 0 .568-.465 1.028-1.038 1.028z" fill="#fff"/></svg>
